<svg width="18" height="17" viewBox="0 0 18 17" fill="none" xmlns="http://www.w3.org/2000/svg">
<path d="M5 0.5H18V2.5H5V0.5ZM1.5 3C1.10218 3 0.720644 2.84196 0.43934 2.56066C0.158035 2.27936 0 1.89782 0 1.5C0 1.10218 0.158035 0.720644 0.43934 0.43934C0.720644 0.158035 1.10218 0 1.5 0C1.89782 0 2.27936 0.158035 2.56066 0.43934C2.84196 0.720644 3 1.10218 3 1.5C3 1.89782 2.84196 2.27936 2.56066 2.56066C2.27936 2.84196 1.89782 3 1.5 3ZM1.5 10C1.10218 10 0.720644 9.84196 0.43934 9.56066C0.158035 9.27936 0 8.89782 0 8.5C0 8.10218 0.158035 7.72064 0.43934 7.43934C0.720644 7.15804 1.10218 7 1.5 7C1.89782 7 2.27936 7.15804 2.56066 7.43934C2.84196 7.72064 3 8.10218 3 8.5C3 8.89782 2.84196 9.27936 2.56066 9.56066C2.27936 9.84196 1.89782 10 1.5 10ZM1.5 16.9C1.10218 16.9 0.720644 16.742 0.43934 16.4607C0.158035 16.1794 0 15.7978 0 15.4C0 15.0022 0.158035 14.6206 0.43934 14.3393C0.720644 14.058 1.10218 13.9 1.5 13.9C1.89782 13.9 2.27936 14.058 2.56066 14.3393C2.84196 14.6206 3 15.0022 3 15.4C3 15.7978 2.84196 16.1794 2.56066 16.4607C2.27936 16.742 1.89782 16.9 1.5 16.9ZM5 7.5H18V9.5H5V7.5ZM5 14.5H18V16.5H5V14.5Z" fill="#4E4B66"/>
</svg>
