<svg width="23" height="16" viewBox="0 0 23 16" fill="none" xmlns="http://www.w3.org/2000/svg">
<path d="M10.646 11H4.154L2.154 16H0L6.4 0H8.4L14.8 16H12.646L10.646 11ZM9.846 9L7.4 2.885L4.954 9H9.846V9ZM20.4 8.535V8H22.4V16H20.4V15.465C19.7919 15.8157 19.1022 16.0002 18.4002 16C17.6982 15.9998 17.0086 15.8148 16.4008 15.4637C15.7929 15.1125 15.2882 14.6076 14.9372 13.9996C14.5863 13.3916 14.4016 12.702 14.4016 12C14.4016 11.298 14.5863 10.6084 14.9372 10.0004C15.2882 9.3924 15.7929 8.88748 16.4008 8.53635C17.0086 8.18521 17.6982 8.00024 18.4002 8C19.1022 7.99976 19.7919 8.18428 20.4 8.535V8.535ZM18.4 14C18.9304 14 19.4391 13.7893 19.8142 13.4142C20.1893 13.0391 20.4 12.5304 20.4 12C20.4 11.4696 20.1893 10.9609 19.8142 10.5858C19.4391 10.2107 18.9304 10 18.4 10C17.8696 10 17.3609 10.2107 16.9858 10.5858C16.6107 10.9609 16.4 11.4696 16.4 12C16.4 12.5304 16.6107 13.0391 16.9858 13.4142C17.3609 13.7893 17.8696 14 18.4 14V14Z" fill="#4E4B66"/>
</svg>
