<svg width="16" height="18" viewBox="0 0 16 18" fill="none" xmlns="http://www.w3.org/2000/svg">
<path d="M1.77778 13.3953H14.2222V7.56084C14.2222 4.30995 11.4364 1.67442 8 1.67442C4.56356 1.67442 1.77778 4.30995 1.77778 7.56084V13.3953ZM8 0C12.4178 0 16 3.38484 16 7.56084V15.0698H0V7.56084C0 3.38484 3.58222 0 8 0ZM5.77778 15.907H10.2222C10.2222 16.4621 9.9881 16.9944 9.57135 17.387C9.1546 17.7795 8.58937 18 8 18C7.41063 18 6.8454 17.7795 6.42865 17.387C6.0119 16.9944 5.77778 16.4621 5.77778 15.907V15.907Z" fill="#4E4B66"/>
</svg>
