<svg width="20" height="20" viewBox="0 0 20 20" fill="none" xmlns="http://www.w3.org/2000/svg">
<path d="M16.1934 13.3644L14.7794 11.9484L16.1934 10.5344C16.661 10.0708 17.0325 9.51945 17.2864 8.91195C17.5404 8.30445 17.6719 7.65277 17.6733 6.99432C17.6748 6.33587 17.5461 5.68362 17.2948 5.07502C17.0435 4.46641 16.6745 3.91344 16.2089 3.44784C15.7433 2.98224 15.1903 2.6132 14.5817 2.36188C13.9731 2.11057 13.3208 1.98194 12.6624 1.98339C12.0039 1.98483 11.3523 2.11631 10.7448 2.37029C10.1373 2.62426 9.58591 2.99573 9.12236 3.46336L7.70836 4.87836L6.29336 3.46436L7.70936 2.05036C9.02218 0.737536 10.8027 0 12.6594 0C14.516 0 16.2965 0.737536 17.6094 2.05036C18.9222 3.36318 19.6597 5.14375 19.6597 7.00036C19.6597 8.85697 18.9222 10.6375 17.6094 11.9504L16.1944 13.3644H16.1934ZM13.3654 16.1924L11.9504 17.6064C10.6375 18.9192 8.85697 19.6567 7.00036 19.6567C5.14375 19.6567 3.36318 18.9192 2.05036 17.6064C0.737536 16.2935 1.95626e-08 14.513 0 12.6564C-1.95626e-08 10.7997 0.737536 9.01918 2.05036 7.70636L3.46536 6.29236L4.87936 7.70836L3.46536 9.12236C2.99773 9.58591 2.62626 10.1373 2.37229 10.7448C2.11831 11.3523 1.98683 12.0039 1.98539 12.6624C1.98394 13.3208 2.11257 13.9731 2.36388 14.5817C2.6152 15.1903 2.98424 15.7433 3.44984 16.2089C3.91544 16.6745 4.46841 17.0435 5.07701 17.2948C5.68562 17.5461 6.33787 17.6748 6.99632 17.6733C7.65477 17.6719 8.30645 17.5404 8.91395 17.2864C9.52145 17.0325 10.0728 16.661 10.5364 16.1934L11.9504 14.7794L13.3654 16.1934V16.1924ZM12.6574 5.58536L14.0724 7.00036L7.00136 14.0704L5.58636 12.6564L12.6574 5.58636V5.58536Z" fill="#4E4B66"/>
</svg>
